<svg height="512pt" viewBox="0 -3 512.001 512" width="512pt" xmlns="http://www.w3.org/2000/svg"><path d="m76.820312 105.617188c9.289063 0 17.96875-5.882813 21.054688-15.277344l-15.96875-5.578125s30.03125 1.109375 30.183594 1.109375c2.855468 0 5.21875-2.261719 5.324218-5.136719.109376-2.941406-2.1875-5.414063-5.128906-5.523437l-15.105468-.554688c-3.59375-8.347656-11.753907-13.410156-20.375-13.410156-6.050782 0-12.03125 2.519531-16.285157 7.132812-13.152343 14.257813-2.945312 37.238282 16.300781 37.238282zm0 0"/><path d="m111.449219 302.445312c0-20.96875-17-37.96875-37.96875-37.96875s-37.96875 17-37.96875 37.96875c0 20.972657 17 37.96875 37.96875 37.96875s37.96875-16.996093 37.96875-37.96875zm-37.96875 12.542969c-6.925781 0-12.539063-5.617187-12.539063-12.542969 0-6.925781 5.613282-12.539062 12.539063-12.539062s12.542969 5.613281 12.542969 12.539062c0 6.925782-5.617188 12.542969-12.542969 12.542969zm0 0"/><path d="m225.757812 302.445312c0-20.96875-17-37.96875-37.96875-37.96875-20.972656 0-37.96875 17-37.96875 37.96875 0 20.972657 16.996094 37.96875 37.96875 37.96875 20.96875 0 37.96875-16.996093 37.96875-37.96875zm-37.96875 12.542969c-6.929687 0-12.542968-5.617187-12.542968-12.542969 0-6.925781 5.613281-12.539062 12.542968-12.539062 6.925782 0 12.539063 5.613281 12.539063 12.539062 0 6.925782-5.613281 12.542969-12.539063 12.542969zm0 0"/><path d="m333.46875 244.234375c-10.898438-8.582031-13.9375-23.4375-8.042969-35.398437l-13.050781-34.378907c-3.984375-10.503906 1.316406-22.292969 11.820312-26.28125l11.039063-4.191406-7.710937-2.933594c-6.113282-2.328125-10.9375-6.5625-14.0625-11.765625-5.046876 1.992188-8.621094 6.898438-8.621094 12.652344v123.726562c0 7.0625 5.375 12.863282 12.257812 13.542969h-22.746094v-269.785156c0-5.203125-4.21875-9.421875-9.421874-9.421875-5.203126 0-9.421876 4.21875-9.421876 9.421875v235.355469h-20.445312v-7.96875c0-6.226563-5.046875-11.277344-11.277344-11.277344h-15.816406v-19.6875l-37.90625-169.34375c-2.445312-7.679688-9.578125-12.898438-17.640625-12.898438h-134.519531c-10.222656 0-18.511719 8.289063-18.511719 18.511719v163.730469h-7.859375c-6.367188 0-11.53125 5.164062-11.53125 11.53125v75.316406c0 6.371094 5.164062 11.53125 11.53125 11.53125h11.464844c-1.007813-28.945312 22.296875-52.304687 50.484375-52.304687 28.226562 0 51.492187 23.402343 50.484375 52.304687h13.335937c-1.003906-28.945312 22.296875-52.304687 50.488281-52.304687 20.921876 0 38.914063 12.785156 46.578126 30.953125h9.417968c6.226563 0 11.277344-5.050782 11.277344-11.277344v-7.972656h20.445312v25.007812c0 5.203125 4.21875 9.421875 9.421876 9.421875h102.511718c6.058594 0 10.679688-5.699219 9.113282-11.777343-6.25-.066407-12.433594-2.152344-17.535157-6.171876zm-295.234375-201.789063h133.847656l30.183594 134.84375-31.375-19.8125 4.425781-10.09375c1.527344-3.480468.171875-7.691406-3.265625-9.316406-3.554687-1.679687-7.761719-.089844-9.328125 3.480469l-4.007812 9.140625c1.214844 2.8125 1.742187 5.964844 1.351562 9.226562-.832031 6.945313-5.527344 12.472657-11.671875 14.726563-1.585937 8.0625 9.832031 11.707031 13.160157 4.121094l3.699218-8.433594 26.398438 16.675781h-90.945313v-16.09375c-.394531-.046875-3.984375-.476562-3.839843-.460937-2.023438-.242188-3.796876-1.210938-5.070313-2.609375l-20.773437-22.78125 24.832031 16.773437c1.410156.953125 3.03125 1.558594 4.726562 1.761719 42.785157 5.085938 40.453125 4.902344 41.660157 4.902344 5.449218 0 10.144531-4.148438 10.65625-9.746094.535156-5.835938-3.949219-10.953125-9.769532-11.648438l-37.429687-4.476562-22.679688-15.320312 20.96875 7.8125c20.125 2.457031 30.917969 3.816406 36.699219 4.5625 6.734375.867187 11.828125-5.324219 10.59375-10.253907-1.4375-5.738281-7.246094-9.230469-12.992188-7.796875l-37.582031 7.496094c0-8.121094-6.585937-14.707031-14.707031-14.707031h-26.933594c-8.121094 0-14.707031 6.585937-14.707031 14.707031v57.878906h-6.125zm0 0"/><path d="m422.90625 129.039062-79.324219-30.1875c-8.808593-3.355468-18.679687 1.070313-22.035156 9.886719-3.355469 8.816407 1.070313 18.683594 9.886719 22.039063l19.273437 7.332031 20.292969-7.703125c10.539062-4 22.3125 1.359375 26.28125 11.820312l2.902344 7.644532c6.351562-2.679688 13.332031-4.171875 20.652344-4.171875h13.777343c-5.015625-4.609375-9.039062-10.28125-11.707031-16.660157zm0 0"/><path d="m390.4375 155.273438-3.464844-9.132813c-1.828125-4.8125-7.21875-7.261719-12.058594-5.421875l-46.804687 17.769531c-4.828125 1.832031-7.253906 7.230469-5.421875 12.054688l10.765625 28.367187c9.871094-7.789062 23.980469-8.390625 34.5625-.867187.089844-.332031-1.832031-25.816407 22.421875-42.769531zm0 0"/><path d="m457.5 111.136719-25.535156 6.585937c3.222656 16.230469 17.539062 28.464844 34.714844 28.464844 19.546874 0 35.394531-15.84375 35.394531-35.394531 0-19.546875-15.847657-35.394531-35.394531-35.394531-14.167969 0-26.382813 8.324218-32.039063 20.347656-7.0625-.023438-13.292969-.039063-20.230469-.058594-.007812 0-.015625 0-.023437 0-4.222657 0-7.652344 3.417969-7.664063 7.640625-.011718 4.234375 3.410156 7.675781 7.644532 7.6875 4.964843.011719 38.925781.109375 43.132812.121094zm0 0"/><path d="m493.949219 157.59375c-13.207031.011719-45.867188-.003906-73.113281-.003906-22.523438 0-40.933594 17.917968-41.046876 40.179687v24.480469l-17.90625-14.101562c-7.414062-5.835938-18.148437-4.554688-23.980468 2.855468-5.835938 7.410156-4.5625 18.148438 2.847656 23.980469l45.550781 35.871094c11.035157 8.683593 27.644531 1.195312 27.644531-13.824219v-59.175781c.019532-3.257813 3.300782-6.226563 6.890626-6.226563h.613281c0 7.621094-.183594 293.1875-.183594 293.320313 0 11.570312 9.585937 20.898437 21.242187 20.480469 11.105469-.394532 19.746094-9.859376 19.746094-20.96875v-163.320313h8.851563v163.320313c0 11.140624 8.6875 20.621093 19.824219 20.972656 11.625.371094 21.070312-8.941406 21.070312-20.484375 0 0 0-288.3125 0-310.402344 0-10.230469-8.53125-16.957031-18.050781-16.953125zm0 0"/></svg>